<svg width="246" height="186" xmlns="http://www.w3.org/2000/svg" xmlns:xlink="http://www.w3.org/1999/xlink" xml:space="preserve" overflow="hidden"><g transform="translate(-1004 -362)"><g><g><g><g><path d="M142.348 151.428 144.564 142.008 140.131 142.04 142.348 151.428Z" stroke="#000000" stroke-width="0.346968" stroke-linecap="butt" stroke-linejoin="miter" stroke-miterlimit="4" stroke-opacity="1" fill="#000000" fill-rule="nonzero" fill-opacity="1" transform="matrix(1 0 0 1.00036 981.439 375.467)"/><path d="M148.148 141.512C148.148 141.777 147.184 141.993 145.995 141.993 144.806 141.993 143.841 141.777 143.841 141.512 143.841 141.247 144.806 141.032 145.995 141.032 147.184 141.032 148.148 141.247 148.148 141.512Z" stroke="#C2C2C2" stroke-width="0.356756" stroke-linecap="butt" stroke-linejoin="miter" stroke-miterlimit="4" stroke-opacity="1" fill="#000000" fill-rule="nonzero" fill-opacity="1" transform="matrix(1 0 0 2.1647 977.788 211.005)"/><path d="M39.1883 47.8038 46.4947 54.1484 48.529 50.21 39.1883 47.8038Z" stroke="#000000" stroke-width="0.346968" stroke-linecap="butt" stroke-linejoin="miter" stroke-miterlimit="4" stroke-opacity="1" fill="#000000" fill-rule="nonzero" fill-opacity="1" transform="matrix(1 0 0 1.00036 1004 363)"/><path d="M148.19 141.552C148.19 141.817 147.226 142.033 146.036 142.033 144.846 142.033 143.882 141.817 143.882 141.552 143.882 141.287 144.846 141.072 146.036 141.072 147.226 141.072 148.19 141.287 148.19 141.552Z" stroke="#C8C8C8" stroke-width="0.356856" stroke-linecap="butt" stroke-linejoin="miter" stroke-miterlimit="4" stroke-opacity="1" fill="#000000" fill-rule="nonzero" fill-opacity="1" transform="matrix(-0.465173 0.88522 -1.91486 -1.00696 1390.68 428.553)"/><path d="M142.348 151.428 144.564 142.008 140.131 142.04 142.348 151.428Z" stroke="#000000" stroke-width="0.346968" stroke-linecap="butt" stroke-linejoin="miter" stroke-miterlimit="4" stroke-opacity="1" fill="#000000" fill-rule="nonzero" fill-opacity="1" transform="matrix(1 0 0 1.00036 981.439 375.64)"/><path d="M148.148 141.512C148.148 141.777 147.184 141.993 145.995 141.993 144.806 141.993 143.841 141.777 143.841 141.512 143.841 141.247 144.806 141.032 145.995 141.032 147.184 141.032 148.148 141.247 148.148 141.512Z" stroke="#C2C2C2" stroke-width="0.356756" stroke-linecap="butt" stroke-linejoin="miter" stroke-miterlimit="4" stroke-opacity="1" fill="#000000" fill-rule="nonzero" fill-opacity="1" transform="matrix(1 0 0 2.1647 977.788 211.178)"/><path d="M192.64 50.1764 226.103 51.9851 235.599 46.5589 203.493 38.419 192.64 50.1764Z" stroke="#000000" stroke-width="0.346968" stroke-linecap="butt" stroke-linejoin="miter" stroke-miterlimit="4" stroke-opacity="1" fill="#D00000" fill-rule="evenodd" fill-opacity="1" transform="matrix(1 0 0 1.00036 1004 363)"/><path d="M203.041 38.419 197.874 33.8949 194.737 30.8267 194.449 30.7315 188.989 22.5958 178.8 28.1974 180.883 42.0365 189.927 43.3932 203.041 38.419Z" stroke="#000000" stroke-width="0.346968" stroke-linecap="butt" stroke-linejoin="miter" stroke-miterlimit="4" stroke-opacity="1" fill="#D00000" fill-rule="evenodd" fill-opacity="1" transform="matrix(1 0 0 1.00036 1004 363)"/><path d="M100.772 84.9744 72.8743 28.5157 85.0841 21.9288 132.907 66.1549 100.772 84.9744Z" stroke="#000000" stroke-width="0.390314" stroke-linecap="butt" stroke-linejoin="miter" stroke-miterlimit="4" stroke-opacity="1" fill="#D00000" fill-rule="evenodd" fill-opacity="1" transform="matrix(1 0 0 1.00036 1004 363)"/><path d="M118.478 101.276 230.625 110.772 243.287 102.632 153.75 80.0218 118.478 101.276Z" stroke="#000000" stroke-width="0.346968" stroke-linecap="butt" stroke-linejoin="miter" stroke-miterlimit="4" stroke-opacity="1" fill="#D00000" fill-rule="evenodd" fill-opacity="1" transform="matrix(1 0 0 1.00036 1004 363)"/><path d="M179.854 42.2627 158.046 52.6634 59.6121 106.824C59.6121 106.824 55.962 108.364 54.4909 109.641 38.1342 124.529 48.7465 138.045 70.5187 129.049L170.846 70.6131 204.171 39.0973C203.995 33.7166 189.854 39.8517 179.854 42.2627Z" stroke="#000000" stroke-width="0.346968" stroke-linecap="butt" stroke-linejoin="miter" stroke-miterlimit="4" stroke-opacity="1" fill="#0000FF" fill-rule="evenodd" fill-opacity="1" transform="matrix(1 0 0 1.00036 1004 363)"/><path d="M122.92 87.9681C122.921 90.0835 121.207 91.7993 119.092 91.8007 116.977 91.8021 115.261 90.088 115.259 87.9729 115.259 87.9712 115.259 87.9698 115.259 87.9681 115.258 85.853 116.972 84.1369 119.087 84.1358 121.203 84.1344 122.918 85.8481 122.92 87.9636 122.92 87.9649 122.92 87.9667 122.92 87.9681Z" stroke="#0D0F11" stroke-width="0.304789" stroke-linecap="round" stroke-linejoin="miter" stroke-miterlimit="4" stroke-opacity="1" fill="#FFFF00" fill-rule="evenodd" fill-opacity="1" transform="matrix(1 0 0 1.00036 1004 363)"/><path d="M119.383 87.7096C80.6793 109.893 55.4416 124.358 38.9846 133.791M35.2394 135.938C8.13972 151.47 8.13972 151.47 8.13972 151.47" stroke="#000000" stroke-width="0.928416" stroke-linecap="butt" stroke-linejoin="miter" stroke-miterlimit="4" stroke-opacity="1" fill="none" fill-rule="nonzero" transform="matrix(1 0 0 1.00036 1004 363)"/><path d="M118.876 88.1076C93.199 75.1414 76.7326 66.8263 66.1726 61.4938M63.1859 59.9855C47.2934 51.9601 47.2934 51.9601 47.2934 51.9601" stroke="#000000" stroke-width="1.11158" stroke-linecap="butt" stroke-linejoin="miter" stroke-miterlimit="4" stroke-opacity="1" fill="none" fill-rule="nonzero" transform="matrix(1 0 0 1.00036 1004 363)"/><path d="M119.058 87.661C119.247 118.63 119.348 135.286 119.403 144.245M119.425 147.824C119.466 154.671 119.466 154.671 119.466 154.671" stroke="#000000" stroke-width="0.906352" stroke-linecap="butt" stroke-linejoin="miter" stroke-miterlimit="4" stroke-opacity="1" fill="none" fill-rule="nonzero" transform="matrix(1 0 0 1.00036 1004 363)"/><text fill="#000000" fill-opacity="1" font-family="Arial,Arial_MSFontService,sans-serif" font-style="normal" font-variant="normal" font-weight="400" font-stretch="normal" font-size="23" text-anchor="start" direction="ltr" writing-mode="lr-tb" unicode-bidi="normal" text-decoration="none" transform="matrix(0.333682 0 0 0.36091 1107.86 534)">Yaw Axis</text><text fill="#000000" fill-opacity="1" font-family="Arial,Arial_MSFontService,sans-serif" font-style="normal" font-variant="normal" font-weight="400" font-stretch="normal" font-size="25" text-anchor="start" direction="ltr" writing-mode="lr-tb" unicode-bidi="normal" text-decoration="none" transform="matrix(0.338737 0 0 0.355526 1006.41 524)">Roll Axis</text><text fill="#000000" fill-opacity="1" font-family="Arial,Arial_MSFontService,sans-serif" font-style="normal" font-variant="normal" font-weight="400" font-stretch="normal" font-size="26" text-anchor="start" direction="ltr" writing-mode="lr-tb" unicode-bidi="normal" text-decoration="none" transform="matrix(0.347027 0 0 0.347034 1019.39 406)">Pitch Axis</text><path d="M84.3915 127.641C84.3915 130.905 78.5176 133.551 71.2719 133.551 64.0261 133.551 58.1522 130.905 58.1522 127.641 58.1522 125.578 60.5413 123.664 64.4551 122.592" stroke="#FF631A" stroke-width="1.26054" stroke-linecap="round" stroke-linejoin="miter" stroke-miterlimit="4" stroke-opacity="1" fill="none" fill-rule="nonzero" transform="matrix(0.999312 -0.0370953 0.0449516 1.21182 1046.72 350.017)"/><path d="M39.0209 136.059 39.0209 136.059C39.0209 136.059 39.0209 136.059 39.55 132.356 35.847 131.562 35.847 131.562 35.847 131.562" stroke="#E34343" stroke-width="1.27767" stroke-linecap="butt" stroke-linejoin="miter" stroke-miterlimit="4" stroke-opacity="1" fill="none" fill-rule="nonzero" transform="matrix(0.999312 -0.0370953 0.0437547 1.17956 1071.53 341.19)"/><path d="M84.4127 127.673C84.4127 130.938 78.5373 133.585 71.2898 133.585 64.0422 133.585 58.1668 130.938 58.1668 127.673 58.1668 125.61 60.5565 123.695 64.4712 122.623" stroke="#FF631A" stroke-width="1.26086" stroke-linecap="round" stroke-linejoin="miter" stroke-miterlimit="4" stroke-opacity="1" fill="none" fill-rule="nonzero" transform="matrix(-0.545985 0.837795 -1.01523 -0.662094 1243.27 452.51)"/><path d="M39.0307 136.093 39.0307 136.093C39.0307 136.093 39.0307 136.093 39.5599 132.389 35.856 131.595 35.856 131.595 35.856 131.595" stroke="#E34343" stroke-width="1.27799" stroke-linecap="butt" stroke-linejoin="miter" stroke-miterlimit="4" stroke-opacity="1" fill="none" fill-rule="nonzero" transform="matrix(-0.545985 0.837795 -0.9882 -0.644465 1236.17 477.874)"/><path d="M84.4111 127.671C84.4111 130.936 78.5358 133.582 71.2885 133.582 64.0409 133.582 58.1657 130.936 58.1657 127.671 58.1657 125.607 60.5553 123.693 64.47 122.62" stroke="#FF631A" stroke-width="1.26083" stroke-linecap="round" stroke-linejoin="miter" stroke-miterlimit="4" stroke-opacity="1" fill="none" fill-rule="nonzero" transform="matrix(0.5956 0.803281 0.973407 -0.722259 868.336 536.797)"/><path d="M39.03 136.09 39.03 136.09C39.03 136.09 39.03 136.09 39.5592 132.386 35.8553 131.593 35.8553 131.593 35.8553 131.593" stroke="#E34343" stroke-width="1.27796" stroke-linecap="butt" stroke-linejoin="miter" stroke-miterlimit="4" stroke-opacity="1" fill="none" fill-rule="nonzero" transform="matrix(0.5956 0.803281 0.947489 -0.703028 876.957 561.686)"/><path d="M203.041 37.2182 209.371 8.72911 204.849 11.8945 194.449 29.5306 192.452 33.1695 190.852 36.5548 190.025 39.7274 189.927 42.1923 203.041 37.2182Z" stroke="#000000" stroke-width="0.346968" stroke-linecap="butt" stroke-linejoin="miter" stroke-miterlimit="4" stroke-opacity="1" fill="#D00000" fill-rule="evenodd" fill-opacity="1" transform="matrix(1 0 0 1.00036 1004 363)"/><path d="M59.0937 156.928 61.3103 147.507 56.8774 147.539 59.0937 156.928Z" stroke="#000000" stroke-width="0.347" stroke-linecap="butt" stroke-linejoin="miter" stroke-miterlimit="4" stroke-opacity="1" fill="#000000" fill-rule="nonzero" fill-opacity="1" transform="matrix(0.508798 0.861087 -0.860778 0.50898 1115.83 384.548)"/><path d="M148.188 141.55C148.188 141.815 147.223 142.031 146.034 142.031 144.844 142.031 143.879 141.815 143.879 141.55 143.879 141.284 144.844 141.069 146.034 141.069 147.223 141.069 148.188 141.284 148.188 141.55Z" stroke="#000000" stroke-width="0.35685" stroke-linecap="butt" stroke-linejoin="miter" stroke-miterlimit="4" stroke-opacity="1" fill="#000000" fill-rule="nonzero" fill-opacity="1" transform="matrix(0.50871 0.860938 -1.86234 1.10121 1208.41 228.81)"/></g></g></g></g></g></svg>